<svg height="1502" width="720" xmlns="http://www.w3.org/2000/svg">
<rect height="1502" fill="#555" width="720"></rect>
<text fill="#7f7" font-family="Courier New" font-size="12" xml:space="preserve">
<tspan x="10" y="26">22 megabytes installed</tspan>
<tspan x="10" y="42"></tspan>
<tspan x="10" y="58">node_modules</tspan>
<tspan x="10" y="74">└─┬ react-native-code-push@2.0.2-beta </tspan>
<tspan x="10" y="90">  ├─┬ code-push@1.8.0-beta </tspan>
<tspan x="10" y="106">  │ ├── base-64@0.1.0 </tspan>
<tspan x="10" y="122">  │ ├── node-uuid@1.4.8 </tspan>
<tspan x="10" y="138">  │ ├── q@1.5.0 </tspan>
<tspan x="10" y="154">  │ └─┬ superagent@1.8.5 </tspan>
<tspan x="10" y="170">  │   ├── component-emitter@1.2.1 </tspan>
<tspan x="10" y="186">  │   ├── cookiejar@2.0.6 </tspan>
<tspan x="10" y="202">  │   ├─┬ debug@2.6.4 </tspan>
<tspan x="10" y="218">  │   │ └── ms@0.7.3 </tspan>
<tspan x="10" y="234">  │   ├── extend@3.0.0 </tspan>
<tspan x="10" y="250">  │   ├─┬ form-data@1.0.0-rc3 </tspan>
<tspan x="10" y="266">  │   │ ├── async@1.5.2 </tspan>
<tspan x="10" y="282">  │   │ ├─┬ combined-stream@1.0.5 </tspan>
<tspan x="10" y="298">  │   │ │ └── delayed-stream@1.0.0 </tspan>
<tspan x="10" y="314">  │   │ └─┬ mime-types@2.1.15 </tspan>
<tspan x="10" y="330">  │   │   └── mime-db@1.27.0 </tspan>
<tspan x="10" y="346">  │   ├── formidable@1.0.17 </tspan>
<tspan x="10" y="362">  │   ├── methods@1.1.2 </tspan>
<tspan x="10" y="378">  │   ├── mime@1.3.4 </tspan>
<tspan x="10" y="394">  │   ├── qs@2.3.3 </tspan>
<tspan x="10" y="410">  │   ├─┬ readable-stream@1.0.27-1 </tspan>
<tspan x="10" y="426">  │   │ ├── core-util-is@1.0.2 </tspan>
<tspan x="10" y="442">  │   │ ├── isarray@0.0.1 </tspan>
<tspan x="10" y="458">  │   │ └── string_decoder@0.10.31 </tspan>
<tspan x="10" y="474">  │   └── reduce-component@1.0.1 </tspan>
<tspan x="10" y="490">  ├─┬ glob@5.0.15 </tspan>
<tspan x="10" y="506">  │ ├─┬ inflight@1.0.6 </tspan>
<tspan x="10" y="522">  │ │ └── wrappy@1.0.2 </tspan>
<tspan x="10" y="538">  │ ├── inherits@2.0.3 </tspan>
<tspan x="10" y="554">  │ ├─┬ minimatch@3.0.3 </tspan>
<tspan x="10" y="570">  │ │ └─┬ brace-expansion@1.1.7 </tspan>
<tspan x="10" y="586">  │ │   ├── balanced-match@0.4.2 </tspan>
<tspan x="10" y="602">  │ │   └── concat-map@0.0.1 </tspan>
<tspan x="10" y="618">  │ ├── once@1.4.0 </tspan>
<tspan x="10" y="634">  │ └── path-is-absolute@1.0.1 </tspan>
<tspan x="10" y="650">  ├─┬ inquirer@1.1.2 </tspan>
<tspan x="10" y="666">  │ ├── ansi-escapes@1.4.0 </tspan>
<tspan x="10" y="682">  │ ├─┬ chalk@1.1.3 </tspan>
<tspan x="10" y="698">  │ │ ├── ansi-styles@2.2.1 </tspan>
<tspan x="10" y="714">  │ │ ├── escape-string-regexp@1.0.5 </tspan>
<tspan x="10" y="730">  │ │ ├── has-ansi@2.0.0 </tspan>
<tspan x="10" y="746">  │ │ └── supports-color@2.0.0 </tspan>
<tspan x="10" y="762">  │ ├─┬ cli-cursor@1.0.2 </tspan>
<tspan x="10" y="778">  │ │ └─┬ restore-cursor@1.0.1 </tspan>
<tspan x="10" y="794">  │ │   ├── exit-hook@1.1.1 </tspan>
<tspan x="10" y="810">  │ │   └── onetime@1.1.0 </tspan>
<tspan x="10" y="826">  │ ├── cli-width@2.1.0 </tspan>
<tspan x="10" y="842">  │ ├─┬ external-editor@1.1.1 </tspan>
<tspan x="10" y="858">  │ │ ├─┬ spawn-sync@1.0.15 </tspan>
<tspan x="10" y="874">  │ │ │ ├─┬ concat-stream@1.6.0 </tspan>
<tspan x="10" y="890">  │ │ │ │ ├─┬ readable-stream@2.2.9 </tspan>
<tspan x="10" y="906">  │ │ │ │ │ ├── buffer-shims@1.0.0 </tspan>
<tspan x="10" y="922">  │ │ │ │ │ ├── isarray@1.0.0 </tspan>
<tspan x="10" y="938">  │ │ │ │ │ ├── process-nextick-args@1.0.7 </tspan>
<tspan x="10" y="954">  │ │ │ │ │ └── string_decoder@1.0.0 </tspan>
<tspan x="10" y="970">  │ │ │ │ └── typedarray@0.0.6 </tspan>
<tspan x="10" y="986">  │ │ │ └── os-shim@0.1.3 </tspan>
<tspan x="10" y="1002">  │ │ └─┬ tmp@0.0.29 </tspan>
<tspan x="10" y="1018">  │ │   └── os-tmpdir@1.0.2 </tspan>
<tspan x="10" y="1034">  │ ├─┬ figures@1.7.0 </tspan>
<tspan x="10" y="1050">  │ │ └── object-assign@4.1.1 </tspan>
<tspan x="10" y="1066">  │ ├── lodash@4.17.4 </tspan>
<tspan x="10" y="1082">  │ ├── mute-stream@0.0.6 </tspan>
<tspan x="10" y="1098">  │ ├─┬ pinkie-promise@2.0.1 </tspan>
<tspan x="10" y="1114">  │ │ └── pinkie@2.0.4 </tspan>
<tspan x="10" y="1130">  │ ├─┬ run-async@2.3.0 </tspan>
<tspan x="10" y="1146">  │ │ └── is-promise@2.1.0 </tspan>
<tspan x="10" y="1162">  │ ├── rx@4.1.0 </tspan>
<tspan x="10" y="1178">  │ ├─┬ string-width@1.0.2 </tspan>
<tspan x="10" y="1194">  │ │ ├── code-point-at@1.1.0 </tspan>
<tspan x="10" y="1210">  │ │ └─┬ is-fullwidth-code-point@1.0.0 </tspan>
<tspan x="10" y="1226">  │ │   └── number-is-nan@1.0.1 </tspan>
<tspan x="10" y="1242">  │ ├─┬ strip-ansi@3.0.1 </tspan>
<tspan x="10" y="1258">  │ │ └── ansi-regex@2.1.1 </tspan>
<tspan x="10" y="1274">  │ └── through@2.3.8 </tspan>
<tspan x="10" y="1290">  ├─┬ plist@1.2.0 </tspan>
<tspan x="10" y="1306">  │ ├── base64-js@0.0.8 </tspan>
<tspan x="10" y="1322">  │ ├── util-deprecate@1.0.2 </tspan>
<tspan x="10" y="1338">  │ ├─┬ xmlbuilder@4.0.0 </tspan>
<tspan x="10" y="1354">  │ │ └── lodash@3.10.1 </tspan>
<tspan x="10" y="1370">  │ └── xmldom@0.1.27 </tspan>
<tspan x="10" y="1386">  └─┬ xcode@0.9.2 </tspan>
<tspan x="10" y="1402">    ├── pegjs@0.9.0 </tspan>
<tspan x="10" y="1418">    ├─┬ simple-plist@0.1.4 </tspan>
<tspan x="10" y="1434">    │ ├─┬ bplist-creator@0.0.4 </tspan>
<tspan x="10" y="1450">    │ │ └── stream-buffers@0.2.6 </tspan>
<tspan x="10" y="1466">    │ └── bplist-parser@0.0.6 </tspan>
<tspan x="10" y="1482">    └── uuid@3.0.1</tspan>
</text>
</svg>
